<svg width="258" height="239" viewBox="0 0 258 239" fill="none" xmlns="http://www.w3.org/2000/svg">
<ellipse cx="17.6642" cy="17.6045" rx="17.6642" ry="17.3588" fill="black"/>
<ellipse cx="91.854" cy="17.6045" rx="17.6642" ry="17.3588" fill="black"/>
<ellipse cx="166.044" cy="17.6045" rx="17.6642" ry="17.3588" fill="black"/>
<ellipse cx="240.234" cy="17.6045" rx="17.6642" ry="17.3588" fill="black"/>
<ellipse cx="17.6642" cy="83.5681" rx="17.6642" ry="17.3588" fill="black"/>
<ellipse cx="91.854" cy="83.5681" rx="17.6642" ry="17.3588" fill="black"/>
<ellipse cx="166.044" cy="83.5681" rx="17.6642" ry="17.3588" fill="black"/>
<ellipse cx="240.234" cy="83.5681" rx="17.6642" ry="17.3588" fill="black"/>
<ellipse cx="17.6642" cy="154.739" rx="17.6642" ry="17.3588" fill="black"/>
<ellipse cx="91.854" cy="154.739" rx="17.6642" ry="17.3588" fill="black"/>
<ellipse cx="166.044" cy="154.739" rx="17.6642" ry="17.3588" fill="black"/>
<ellipse cx="240.234" cy="154.739" rx="17.6642" ry="17.3588" fill="black"/>
<ellipse cx="17.6642" cy="220.703" rx="17.6642" ry="17.3588" fill="black"/>
<ellipse cx="91.854" cy="220.703" rx="17.6642" ry="17.3588" fill="black"/>
<ellipse cx="166.044" cy="220.703" rx="17.6642" ry="17.3588" fill="black"/>
<ellipse cx="240.234" cy="220.703" rx="17.6642" ry="17.3588" fill="black"/>
</svg>
